<svg width="18" height="18" viewBox="0 0 18 18" fill="none" xmlns="http://www.w3.org/2000/svg">
<circle cx="9" cy="9" r="9" fill="white"/>
<path d="M9 0C6.62196 0.0286903 4.34941 0.986113 2.66776 2.66776C0.986113 4.34941 0.0286903 6.62196 0 9C0.0286903 11.378 0.986113 13.6506 2.66776 15.3322C4.34941 17.0139 6.62196 17.9713 9 18C11.378 17.9713 13.6506 17.0139 15.3322 15.3322C17.0139 13.6506 17.9713 11.378 18 9C17.9713 6.62196 17.0139 4.34941 15.3322 2.66776C13.6506 0.986113 11.378 0.0286903 9 0ZM14.1429 9.64286H9.64286V14.1429H8.35714V9.64286H3.85714V8.35714H8.35714V3.85714H9.64286V8.35714H14.1429V9.64286Z" fill="#03AA82"/>
</svg>
