<svg width="23" height="24" viewBox="0 0 23 24" fill="none" xmlns="http://www.w3.org/2000/svg">
<path d="M15.5673 16.7084L17.4514 14.7982C17.7052 14.5441 18.0263 14.3701 18.3756 14.2974C18.725 14.2248 19.0877 14.2565 19.4196 14.3888L21.7159 15.3184C22.0514 15.4564 22.339 15.692 22.5426 15.9956C22.7461 16.2991 22.8565 16.6569 22.8598 17.024V21.288C22.8579 21.5377 22.8061 21.7844 22.7076 22.0132C22.6092 22.2421 22.4661 22.4484 22.2869 22.6197C22.1077 22.791 21.8962 22.9238 21.6651 23.01C21.434 23.0963 21.188 23.1342 20.9421 23.1215C4.85144 22.1067 1.60471 8.29126 0.990694 3.00387C0.962191 2.74422 0.988233 2.4814 1.06711 2.23269C1.14598 1.98398 1.2759 1.75502 1.44832 1.56087C1.62074 1.36673 1.83174 1.21179 2.06746 1.10627C2.30318 1.00074 2.55826 0.947009 2.81593 0.948613H6.87854C7.24107 0.949701 7.59499 1.06073 7.89478 1.26742C8.19456 1.4741 8.42651 1.767 8.56078 2.10843L9.4776 4.43658C9.61239 4.77179 9.64678 5.13984 9.57647 5.49475C9.50617 5.84966 9.33428 6.1757 9.08227 6.43214L7.19816 8.34242C7.19816 8.34242 8.28321 15.7874 15.5673 16.7084Z" fill="#01AB84"/>
</svg>
